<svg xmlns="http://www.w3.org/2000/svg" xmlns:xlink="http://www.w3.org/1999/xlink" width="500" viewBox="0 0 260 69">
	<defs><path id="a" d="M14.66 24.054V.578H.173v23.476z"/><path id="c" d="M0 67.797h259.097V.033H0z"/></defs>
	<g fill="none" fill-rule="evenodd"><path fill="#B21F28" d="M129.548.714l-31.323 10.62 31.323 10.621 31.324-10.621z"/><path fill="#404041" d="M142.66 20.367v5.38l-13.112 5.439-13.102-5.439v-5.38l-7.148-2.423v12.505l20.25 8.343 20.26-8.343V17.944z"/><path fill="#B21F28" d="M156.083 16.042v51.439h2.232v-10.86h14.635v10.86h2.191V44.005h-2.191v10.704h-14.635V15.286z"/><path fill="#B21F28" d="M156.083 44.005v23.476h2.232v-10.86h14.635v10.86h2.191V44.005h-2.191v10.704h-14.635V44.005z"/>
		<g transform="translate(0 .68)"><path fill="#B21F28" d="M213.407 67.686c-5.671 0-9.057-3.425-9.057-9.16V43.619h2.193v14.395c0 4.928 2.507 7.641 7.06 7.641 4.289 0 6.748-2.698 6.748-7.403V43.619h2.191V58.17c0 6.137-3.244 9.515-9.135 9.515z"/>
			<g transform="translate(244.437 42.82)">
				<mask id="b" fill="#fff"><use xlink:href="#a"/></mask><path fill="#B21F28" mask="url(#b)" d="M.173 24.054V.578H14.66V2.57H2.404v8.711H12.61v1.991H2.404v8.79H14.66v1.992z"/></g><path
					fill="#B21F28"
					d="M189.744 67.797c-6.707 0-12.163-5.448-12.163-12.145 0-6.696 5.456-12.144 12.163-12.144 6.706 0 12.162 5.448 12.162 12.144 0 6.697-5.456 12.145-12.162 12.145m0-22.165c-5.534 0-10.036 4.495-10.036 10.02 0 5.526 4.502 10.022 10.036 10.022 5.533 0 10.036-4.496 10.036-10.022 0-5.525-4.503-10.02-10.036-10.02m35.15 17.933l1.433-1.808c1.434 1.855 4.068 3.379 7.212 3.379 3.743 0 5.963-2 5.963-4.665 0-6.283-14.1-2.713-14.1-10.995 0-3.523 2.913-6.38 7.951-6.38 3.837 0 6.38 1.524 7.998 3.381l-1.341 1.761c-1.294-1.81-3.698-3.047-6.657-3.047-3.467 0-5.547 1.81-5.547 4.189 0 5.76 14.053 2.237 14.053 11.09 0 3.714-2.773 6.76-8.367 6.76-3.606 0-6.379-1.094-8.597-3.665"/><path
					fill="#404041"
					d="M0 66.629V43.325h4.556v19.314h10.529v3.99zM16.29 66.629V43.325h15.3v3.841H20.772v5.853h8.526v3.841h-8.526v5.928H31.59v3.841zM54.978 66.629h-4.594l-1.942-5.518h-9.41l-1.904 5.518h-4.592l8.513-23.304h5.526l8.403 23.304zM43.775 47.24l-3.547 10.104h7.057l-3.51-10.104zM92.538 43.325h4.332v23.527h-4.855L80.85 49.701v16.928h-4.331V43.325h4.966l11.053 16.964z"/>
			<mask id="d" fill="#fff"><use xlink:href="#c"/></mask><path
				fill="#404041"
				mask="url(#d)"
				d="M100.825 66.629h4.518V43.325h-4.518zM125.319 43.325h4.332v23.527h-4.854l-11.166-17.151v16.928H109.3V43.325h4.967l11.052 16.964zM143.625 67.372c-6.94 0-11.787-4.906-11.787-11.93v-.07c0-6.73 5.162-12.001 11.754-12.001 3.538 0 5.96.803 8.363 2.774l.107.088-2.59 3.234-.101-.08c-1.608-1.3-3.235-2.165-5.946-2.165-3.988 0-7.232 3.625-7.232 8.08v.07c0 4.762 3.195 8.22 7.6 8.22 2 0 3.78-.539 5.147-1.556l.213-.159v-4.269h-4.655l2.606-3.538h6.003v9.744l-.049.04c-2.757 2.335-5.93 3.518-9.433 3.518m-74.15-.743l-5.036-8.7H60.43v8.7h-4.008V43.325H66.46c4.521 0 7.502 2.97 7.502 7.302 0 4.122-2.673 6.394-5.446 6.848l5.617 9.154h-4.658zm.376-16.037c0-2.236-1.643-3.667-3.905-3.667h-5.515v7.406h5.515c2.262 0 3.905-1.467 3.905-3.739z"/></g>
	</g>
</svg>
