<svg xmlns="http://www.w3.org/2000/svg" width="12" height="8" viewBox="0 0 12 8">
  <path fill="#FFF" fill-rule="evenodd" d="M404.470089,24.125 L399.501339,29.0870536 C399.416517,29.1718754 399.316072,29.2142857 399.2,29.2142857 C399.083928,29.2142857 398.983483,29.1718754 398.898661,29.0870536 L393.929911,24.125 C393.845089,24.0401781 393.802679,23.9386167 393.802679,23.8203125 C393.802679,23.7020083 393.845089,23.6004469 393.929911,23.515625 L395.041518,22.4107143 C395.12634,22.3258924 395.226785,22.2834821 395.342857,22.2834821 C395.458929,22.2834821 395.559375,22.3258924 395.644196,22.4107143 L399.2,25.9665179 L402.755804,22.4107143 C402.840625,22.3258924 402.941071,22.2834821 403.057143,22.2834821 C403.173215,22.2834821 403.27366,22.3258924 403.358482,22.4107143 L404.470089,23.515625 C404.554911,23.6004469 404.597321,23.7020083 404.597321,23.8203125 C404.597321,23.9386167 404.554911,24.0401781 404.470089,24.125 Z" transform="translate(-393 -22)"/>
</svg>
