<svg xmlns="http://www.w3.org/2000/svg" width="29" height="26"><path fill-rule="evenodd" d="M1.554 5.25a.973.973 0 0 1-.719-.281.973.973 0 0 1-.28-.719v-2.5c0-.292.093-.531.28-.719a.973.973 0 0 1 .72-.28h26c.29 0 .53.093.718.28a.973.973 0 0 1 .281.72V4.25a.973.973 0 0 1-.281.719.973.973 0 0 1-.719.281h-26zm0 10a.973.973 0 0 1-.719-.281.973.973 0 0 1-.28-.719v-2.5c0-.292.093-.531.28-.719a.973.973 0 0 1 .72-.281h26c.29 0 .53.094.718.281a.973.973 0 0 1 .281.719v2.5a.973.973 0 0 1-.281.719.973.973 0 0 1-.719.281h-26zm0 10a.973.973 0 0 1-.719-.281.973.973 0 0 1-.28-.719v-2.5c0-.292.093-.531.28-.719a.973.973 0 0 1 .72-.281h26c.29 0 .53.094.718.281a.973.973 0 0 1 .281.719v2.5a.973.973 0 0 1-.281.719.973.973 0 0 1-.719.281h-26z"/></svg>