<svg xmlns="http://www.w3.org/2000/svg" width="20" height="35"><path fill-rule="evenodd" d="M3.846 0h12.308c1.337 0 1.822.14 2.311.4.49.262.873.646 1.134 1.135.262.489.401.974.401 2.31v27.31c0 1.336-.14 1.821-.4 2.31a2.726 2.726 0 0 1-1.135 1.134c-.489.262-.974.401-2.31.401H3.844c-1.336 0-1.821-.14-2.31-.4A2.726 2.726 0 0 1 .4 33.464c-.261-.488-.4-.973-.4-2.309V3.844c0-1.336.14-1.821.4-2.31A2.726 2.726 0 0 1 1.536.4c.488-.261.973-.4 2.309-.4zM2 5v25h16V5H2zm5.5-3a.5.5 0 0 0 0 1h5a.5.5 0 1 0 0-1h-5zM10 34a1.5 1.5 0 1 0 0-3 1.5 1.5 0 0 0 0 3z"/></svg>