<svg aria-hidden="true" xmlns="http://www.w3.org/2000/svg" viewBox="0 0 512 512"><g fill="currentColor"><path d="M156.5 447.7l-12.6 29.5c-18.7-9.5-35.9-21.2-51.5-34.9l22.7-22.7c12.5 10.9 26.4 20.4 41.4 28.1zM40.6 272H8.5c1.4 21.2 5.4 41.7 11.7 61.1L50 321.2c-4.9-15.7-8.2-32.2-9.4-49.2zm0-32c1.4-18.8 5.2-37 11.1-54.1l-29.5-12.6c-7.5 21-12.2 43.4-13.7 66.7h32.1zm23.7-83.5c7.8-14.9 17.2-28.8 28.1-41.5L69.7 92.3c-13.7 15.6-25.5 32.8-34.9 51.5l29.5 12.7zM397 419.6c-13.9 12-29.4 22.3-46.1 30.4l11.9 29.8c20.7-9.9 39.8-22.6 56.9-37.6L397 419.6zM115 92.4c13.9-12 29.4-22.3 46.1-30.4l-11.9-29.8c-20.7 9.9-39.8 22.6-56.8 37.6L115 92.4zm332.7 263.1c-7.8 14.9-17.2 28.8-28.1 41.5l22.7 22.7c13.7-15.6 25.5-32.9 34.9-51.5l-29.5-12.7zm23.7-83.5c-1.4 18.8-5.2 37-11.1 54.1l29.5 12.6c7.5-21.1 12.2-43.5 13.6-66.8h-32zM321.2 462c-15.7 5-32.2 8.2-49.2 9.4v32.1c21.2-1.4 41.7-5.4 61.1-11.7L321.2 462zm-81.2 9.4c-18.8-1.4-37-5.2-54.1-11.1l-12.6 29.5c21.1 7.5 43.5 12.2 66.8 13.6v-32zm222-280.6c5 15.7 8.2 32.2 9.4 49.2h32.1c-1.4-21.2-5.4-41.7-11.7-61.1L462 190.8zM92.4 397c-12-13.9-22.3-29.4-30.4-46.1l-29.8 11.9c9.9 20.7 22.6 39.8 37.6 56.9L92.4 397zM272 40.6c18.8 1.4 36.9 5.2 54.1 11.1l12.6-29.5c-21-7.5-43.4-12.2-66.7-13.7v32.1zM190.8 50c15.7-5 32.2-8.2 49.2-9.4V8.5c-21.2 1.4-41.7 5.4-61.1 11.7L190.8 50zm251.5 42.3L419.6 115c12 13.9 22.3 29.4 30.5 46.1l29.8-11.9c-9.9-20.7-22.6-39.8-37.6-56.9zm-45.3.1l22.7-22.7c-15.6-13.7-32.8-25.5-51.5-34.9l-12.6 29.5c14.8 7.8 28.8 17.2 41.4 28.1z"/><circle cx="256" cy="364" r="28"><animate attributeType="XML" repeatCount="indefinite" dur="2s" attributeName="r" values="28;14;28;28;14;28;"/><animate attributeType="XML" repeatCount="indefinite" dur="2s" attributeName="opacity" values="1;0;1;1;0;1;"/></circle><path d="M263.7 312h-16c-6.6 0-12-5.4-12-12 0-71 77.4-63.9 77.4-107.8 0-20-17.8-40.2-57.4-40.2-29.1 0-44.3 9.6-59.2 28.7-3.9 5-11.1 6-16.2 2.4l-13.1-9.2c-5.6-3.9-6.9-11.8-2.6-17.2 21.2-27.2 46.4-44.7 91.2-44.7 52.3 0 97.4 29.8 97.4 80.2 0 67.6-77.4 63.5-77.4 107.8-.1 6.6-5.5 12-12.1 12z"><animate attributeType="XML" repeatCount="indefinite" dur="2s" attributeName="opacity" values="1;0;0;0;0;1;"/></path></g></svg>